<?xml version="1.0" standalone="no"?>
<!DOCTYPE svg PUBLIC "-//W3C//DTD SVG 1.1//EN" "http://www.w3.org/Graphics/SVG/1.1/DTD/svg11.dtd" >
<svg>
<metadata>
Created by FontForge 20120731 at Sun Jun 30 21:18:46 2019
 By www
Generated by Fontographer 4.7
</metadata>
<defs>
<font id="OrganicElements" horiz-adv-x="161" >
  <font-face 
    font-family="Organic Elements"
    font-weight="400"
    font-stretch="normal"
    units-per-em="1000"
    panose-1="2 0 5 7 0 0 0 2 0 4"
    ascent="800"
    descent="-200"
    x-height="382"
    cap-height="799"
    bbox="-164 -473 1416 1093"
    underline-thickness="20"
    underline-position="-123"
    unicode-range="U+0020-2020"
  />
<missing-glyph horiz-adv-x="500" 
d="M63 0v1093h375v-1093h-375zM125 63h250v968h-250v-968z" />
    <glyph glyph-name=".notdef" horiz-adv-x="500" 
d="M63 0v1093h375v-1093h-375zM125 63h250v968h-250v-968z" />
    <glyph glyph-name="NULL" horiz-adv-x="0" 
 />
    <glyph glyph-name="nonmarkingreturn" horiz-adv-x="234" 
 />
    <glyph glyph-name="space" unicode=" " horiz-adv-x="234" 
 />
    <glyph glyph-name="exclam" unicode="!" horiz-adv-x="1000" 
d="M93 339l-45 -340l-28 341q-1 17 9 36t26 19t29 -20t9 -36zM93 -119q0 -44 -43 -44q-44 0 -44 44q0 18 12.5 31.5t30.5 13.5q44 0 44 -45z" />
    <glyph glyph-name="quotedbl" unicode="&#x22;" horiz-adv-x="430" 
d="M189 1084q-113 3 -113 -63q0 -6 1 -18t1 -18q0 -31 -32 -31q-16 0 -25.5 14t-9.5 31q0 51 61 74q37 14 80 14q6 0 18.5 -1.5t18.5 -1.5zM283 1082q-113 3 -113 -63q0 4 1 -2v-34q0 -31 -31 -31q-16 0 -25.5 14t-9.5 31q0 51 60 74q37 14 80 14q6 0 19 -1.5t19 -1.5z" />
    <glyph glyph-name="quotesingle" unicode="'" 
d="M134 332q0 -86 -136 -138q30 13 55 35q31 27 31 53q0 15 -15 40.5t-15 34.5q0 12 11 22.5t23 10.5q20 0 33 -18.5t13 -39.5z" />
    <glyph glyph-name="comma" unicode="," 
d="M134 2q0 -86 -136 -138q30 13 55 35q31 27 31 53q0 15 -15 40.5t-15 34.5q0 12 11 22.5t23 10.5q20 0 33 -18.5t13 -39.5z" />
    <glyph glyph-name="period" unicode="." 
d="M104 45q0 -49 -45 -49q-21 0 -36 14t-15 35q0 46 53 46q43 0 43 -46z" />
    <glyph glyph-name="zero" unicode="0" horiz-adv-x="286" 
d="M256 193q0 -69 -21 -121q-32 -78 -102 -78q-71 0 -103 80q-21 52 -21 119q0 65 21 118q32 82 103 82t103 -81q20 -51 20 -119zM207 134v118q0 126 -74 126q-53 0 -69 -75q-7 -33 -7 -110q0 -75 7 -109q16 -76 70 -76q73 0 73 126z" />
    <glyph glyph-name="one" unicode="1" horiz-adv-x="217" 
d="M47 354q-26 -17 -26 -32q0 -8 7 -16t7 -15q0 -14 -13 -14q-8 0 -13.5 9t-5.5 15q0 31 44 53zM193 1h-132v13q13 1 27 2q18 4 18 22v302q0 28 -46 23q15 5 46 21l28 14h13v-364q0 -18 46 -20v-13z" />
    <glyph glyph-name="two" unicode="2" horiz-adv-x="329" 
d="M302 35q-12 -13 -36 -35h-257v18q94 79 135 131q57 72 57 134q0 96 -82 96q-21 0 -50 -12q-33 -13 -47 -32q13 27 49 44q32 16 62 16q52 0 86.5 -30.5t34.5 -78.5q0 -58 -62 -124q-71 -63 -141 -127h251zM52 257q0 -15 -17 -15q-14 0 -22.5 12.5t-8.5 27.5q0 14 12 42
q-5 -16 -5 -27q0 -23 20.5 -26.5t20.5 -13.5z" />
    <glyph glyph-name="three" unicode="3" horiz-adv-x="243" 
d="M45 266q0 -15 -16 -15q-14 0 -22 15q-7 12 -7 25q0 9 12 42q-5 -12 -5 -28q0 -22 19 -25.5t19 -13.5zM223 118q0 -58 -40 -91q-36 -30 -89 -30q-30 0 -58 12q-36 16 -36 42q0 21 18 21q13 0 27 -31t49 -31q46 0 67 41q14 28 14 68q0 89 -56 89q-17 0 -35 -14.5t-20 -14.5
q-8 0 -8 10q0 9 27 26q36 24 51 39q27 29 27 65q0 63 -57 63q-48 0 -84 -35q30 50 93 50q35 0 62 -15q35 -19 35 -56q0 -31 -30 -59q-11 -10 -63 -46q55 3 82 -29q24 -27 24 -74z" />
    <glyph glyph-name="four" unicode="4" horiz-adv-x="310" 
d="M284 206q0 -5 -5 -24q1 5 1 15q0 16 -14 19t-14 9q0 10 12 10q20 0 20 -29zM276 173q-8 -46 -44 -46h-39v-89q0 -32 42 -31v-13h-130v13q32 -4 41 12q5 9 5 36v72h-146q-2 3 -2 10q0 4 171 259h19v-250h51q9 0 19.5 7.5t12.5 19.5zM150 146v188l-128 -188h128z" />
    <glyph glyph-name="five" unicode="5" horiz-adv-x="257" 
d="M234 393q-4 -11 -9 -22q-9 -18 -21 -18h-161l-6 -94v-25q32 35 73 35q53 0 85 -45q27 -38 27 -85q0 -64 -38 -104.5t-102 -40.5q-16 0 -28 3q71 9 98 50q20 31 20 90q0 114 -72 114q-42 0 -63 -42h-17l10 184h204zM48 -2q-47 9 -47 38q0 17 12 17t12 -11q0 -1 -3 -9.5
t-3 -9.5q0 -18 29 -25z" />
    <glyph glyph-name="six" unicode="6" horiz-adv-x="264" 
d="M227 358q0 -17 -14 -17q-12 0 -12 9q1 8 0 24q-8 22 -40 18q8 2 18 2q17 0 32.5 -9t15.5 -27zM244 117q0 -51 -33 -89t-86 -38q-73 0 -106 73q-23 49 -23 112q0 77 29 135q38 77 117 84h4q-55 -12 -81 -68q-19 -40 -19 -92v-31l2 -2q36 42 81 42q51 0 83 -38.5t32 -87.5z
M195 121q0 106 -73 106q-77 0 -77 -105q0 -40 14 -71q20 -46 64 -46q72 0 72 116z" />
    <glyph glyph-name="seven" unicode="7" horiz-adv-x="253" 
d="M230 394l-62 -192q-36 -112 -68 -192q-6 -15 -23 -15q-18 0 -18 18q0 7 55 135l90 207l-150 1q-24 1 -41 -29q6 18 11 37q11 30 35 30h171zM31 273q0 -10 -10 -10q-18 0 -18 26q0 1 7 26q-2 -8 -2 -16q0 -16 11.5 -18t11.5 -8z" />
    <glyph glyph-name="eight" unicode="8" horiz-adv-x="273" 
d="M245 101q0 -53 -40 -81q-33 -25 -82 -25q-47 0 -82 26q-41 29 -41 80q0 82 93 103q-80 24 -80 95q0 46 36 73q32 25 74 25q43 0 75 -25q36 -28 36 -73q0 -71 -82 -95q93 -21 93 -103zM188 300q0 83 -65 83q-62 0 -62 -80q0 -93 60 -93q67 0 67 90zM197 101q0 95 -76 95
q-72 0 -72 -94t73 -94q75 0 75 93z" />
    <glyph glyph-name="nine" unicode="9" horiz-adv-x="281" 
d="M251 208q0 -141 -85 -197q-25 -16 -45 -16h-16l32 16q38 19 52 59q5 15 13 70l-1 44q-38 -41 -78 -41q-52 0 -85 40q-29 36 -29 83q0 49 30 85q33 41 87 41q71 0 103 -72q22 -49 22 -112zM88 -4q-30 3 -54 18q-29 19 -29 46q0 8 6 18t15 10q19 0 19 -18q0 -1 -5 -16.5
t-5 -16.5q0 -28 53 -41zM203 260q0 45 -15 76q-20 40 -60 40q-70 0 -70 -114q0 -104 71 -104q74 0 74 102z" />
    <glyph glyph-name="colon" unicode=":" 
d="M104 345q0 -49 -45 -49q-21 0 -36 14t-15 35q0 46 53 46q43 0 43 -46zM104 46q0 -28 -8.5 -36t-36.5 -8q-51 0 -51 44q0 20 15.5 34t35.5 14q45 0 45 -48z" />
    <glyph glyph-name="semicolon" unicode=";" horiz-adv-x="182" 
d="M134 42q0 -86 -136 -138q30 13 55 35q31 27 31 53q0 15 -15 40.5t-15 34.5q0 12 11 22.5t23 10.5q20 0 33 -18.5t13 -39.5zM134 345q0 -49 -45 -49q-21 0 -36 14t-15 35q0 46 53 46q43 0 43 -46z" />
    <glyph glyph-name="question" unicode="?" horiz-adv-x="520" 
d="M269 279l2 10q-1 -6 -11 -58q-1 -5 -10 -20q-10 -19 -21 -33q-24 -28 -48.5 -57t-34 -48.5t-28.5 -68.5q0 11 3 34q5 49 44 124q36 69 36 111q0 39 -20 67q-23 34 -66 34q-22 0 -45 -14t-23 -32q0 -3 1 -7q9 -30 19 -40q7 -7 8 -15q1 -11 -10.5 -22.5t-24.5 -11.5
q-11 0 -21 8q-15 13 -18 35q-1 4 -1 14q11 31 24 63q19 20 38 28.5t41 12.5q13 1 29 1q60 0 98.5 -31t38.5 -84zM169 -83q0 -17 -12.5 -28.5t-29.5 -11.5t-29 11.5t-12 28.5t12 29t29 12t29.5 -12t12.5 -29z" />
    <glyph glyph-name="A" unicode="A" horiz-adv-x="836" 
d="M808 1h-298v25q26 1 52 1q46 7 46 39q0 1 -9 32q-8 23 -10 32q-28 102 -116 193t-181 133l-69 -159q-69 -159 -69 -199q0 -35 25 -54t61 -18v-25h-238v25q73 7 114 87q33 86 51 130q9 22 95 221q-38 28 -140 28q-81 0 -152 -31q42 69 177 69q65 0 132 -19l124 291l7 -1
l62 -141q28 -70 126 -308q79 -194 131 -289q15 -26 77 -37zM462 428l-92 224l-60 -150q86 -27 152 -74z" />
    <glyph glyph-name="B" unicode="B" horiz-adv-x="739" 
d="M701 214q0 -103 -77 -161q-69 -53 -175 -53h-384v26q18 -1 33 -1q55 0 77 23t22 78v543q0 48 -12 69q-16 27 -61 27q-11 0 -33 -1t-33 -1q-29 0 -53 4v35h329q326 0 326 -188q0 -148 -217 -187q258 -24 258 -213zM576 219q0 103 -64 151q-49 37 -160 54q93 25 132 57
q51 42 51 128q0 95 -52 133q-44 32 -143 32h-21q-6 0 -16 -1h-11l2 -661q0 -54 32 -72q19 -11 65 -11q185 0 185 190z" />
    <glyph glyph-name="C" unicode="C" horiz-adv-x="727" 
d="M684 34h-22q-8 21 -15 42q-10 23 -24 39q-74 -73 -135 -94q-43 -15 -128 -15q-163 0 -259 99q-103 104 -103 277q0 179 98 294q109 128 264 128q158 0 260 -112q22 13 32 97h29v-293h-22q-11 123 -84 198q-76 79 -198 79q-151 0 -218 -139q-45 -92 -45 -245
q0 -136 52 -228q70 -125 220 -125q118 0 190 78q63 70 83 192h25v-272z" />
    <glyph glyph-name="D" unicode="D" horiz-adv-x="844" 
d="M804 383q0 -275 -219 -358q-74 -28 -121 -28h-462v26h65q32 0 49 23t17 56v574q0 76 -68 76h-61v28l324 15q222 10 345 -88q131 -105 131 -324zM679 375q0 391 -363 391h-85v-626q0 -74 24 -95.5t99 -21.5q325 0 325 352z" />
    <glyph glyph-name="E" unicode="E" horiz-adv-x="754" 
d="M716 246l-17 -248h-642v26q118 -9 118 74v599q0 49 -34 64q-20 9 -71 6t-69 3v28h623l19 -200h-28q-18 88 -53 126q-42 45 -126 45h-161v-370q105 114 247 114q82 0 109 -40q-46 18 -92 18q-129 0 -238 -133q-27 -33 -28 -35v-167q0 -96 31 -116q20 -13 116 -13
q119 0 162 30q57 40 108 189h26z" />
    <glyph glyph-name="F" unicode="F" horiz-adv-x="699" 
d="M675 596h-23q-29 171 -157 171h-199v-360q95 104 238 104q75 0 110 -41q-50 19 -94 19q-117 0 -221 -113q-35 -38 -35 -42v-206q0 -60 21 -83t80 -23q13 0 29 1v-26h-354v26q21 -4 38 -4q60 0 79 46q11 27 11 97v473q0 86 -22 109t-108 23h-63v29h670v-200z" />
    <glyph glyph-name="G" unicode="G" horiz-adv-x="788" 
d="M784 358q-35 -55 -99 -73q13 -30 12 -84l-3 -133q-46 1 -102 -15q-17 -5 -50 -15t-50 -15q-56 -16 -121 -16q-84 0 -143.5 23.5t-113.5 78.5q-108 107 -108 276q0 177 106 294q58 64 116 94q65 33 148 33q158 0 259 -112q19 33 25 86h27v-260h-27q-16 113 -85 183
q-74 75 -185 75q-97 0 -166 -57.5t-92 -152.5q-14 -58 -14 -162q0 -158 53 -251q68 -120 217 -120q90 0 140 42q54 45 54 133q0 69 -10 79q-65 14 -134 14q-81 0 -113 -35q8 42 53 70q42 27 86 25l224 -11q58 -3 88 6h8z" />
    <glyph glyph-name="H" unicode="H" horiz-adv-x="873" 
d="M855 770q-17 3 -31 3q-58 0 -76 -40q-11 -24 -11 -87v-92q28 -9 56 -17q35 -15 60 -48q-4 4 -51 16.5t-57 12.5h-8v-368q0 -60 11 -86q19 -44 76 -44q15 0 31 2v-26h-343v26q29 0 59 1q61 2 66 70l3 45l-2 375q-14 -5 -79 -26q-86 -28 -192 -136q-100 -102 -141 -192
q-1 -5 -1 -28q0 -58 14 -80q19 -30 77 -30q14 0 30 1v-26h-343v26q17 -1 31 -1q92 0 92 100v553q0 55 -19 76.5t-73 21.5q-14 0 -31 -1l2 28h341v-28q-29 -1 -58 -3q-35 -4 -50 -24q-4 -5 -13 -55l2 -387q146 218 412 253q9 123 -7 177q-10 33 -51 36q-15 1 -69 3v28h343
v-29z" />
    <glyph glyph-name="I" unicode="I" horiz-adv-x="703" 
d="M670 768h-61q-59 0 -59 -88v-563q0 -92 91 -92q14 0 29 1v-26h-341v24q62 -1 86 11q36 18 36 73v584q0 48 -22 60q-11 6 -57 6q-148 0 -214 -43q-86 -56 -86 -205q0 -82 41 -156q51 -91 138 -91q53 0 76 33q4 6 24 62q12 33 40 33q24 0 24 -32q0 -66 -70 -102
q-49 -25 -104 -25q-113 0 -175 83q-57 75 -57 191q0 142 117 223q101 70 238 70h306v-31z" />
    <glyph glyph-name="J" unicode="J" horiz-adv-x="614" 
d="M579 779h-52q-48 0 -48 -82v-612q0 -110 -61.5 -169.5t-171.5 -59.5q-49 0 -89 15q-62 23 -62 75q0 22 13.5 37.5t34.5 15.5q20 0 34 -13.5t14 -33.5q0 -7 -4.5 -21t-4.5 -21q0 -30 61 -30q141 0 141 190v638q0 40 -13.5 55.5t-52.5 15.5h-153q-60 0 -93 -44
q-30 -39 -30 -101q0 -57 27 -97q31 -46 85 -46q71 0 92 81q2 -8 2 -16q0 -40 -34 -63q-30 -20 -72 -20q-65 0 -102 46q-34 42 -34 108q0 77 62 128q58 49 137 49h374v-25z" />
    <glyph glyph-name="K" unicode="K" horiz-adv-x="1112" 
d="M1107 -3h-404v26q30 0 64 2q52 3 52 36q0 21 -52 74l-262 266l-55 -50v-252q0 -77 91 -77q12 0 25 1v-26h-342v23q70 -2 97 18q31 23 31 91v540q0 51 -14 73q-18 28 -66 28q-106 0 -163.5 -60t-57.5 -166q0 -108 50 -184q53 -81 154 -108q-131 10 -191.5 71t-60.5 192v74
q12 92 120 156q91 54 172 54h276v-29q-64 0 -84 -8q-37 -15 -37 -66v-304l179 158q149 132 149 170q0 44 -85 50v27h302v-27q-59 5 -136 -50q-52 -37 -135 -120q-35 -35 -86 -70q-32 -22 -65 -44l220 -229q132 -137 221 -206q19 -15 93 -20v-34z" />
    <glyph glyph-name="L" unicode="L" horiz-adv-x="937" 
d="M908 0h-658v26q19 -3 35 -3q59 0 78 44q12 27 12 93v479q0 81 -14 101q-19 28 -96 28q-211 0 -211 -202q0 -62 38 -119q45 -67 112 -67q48 0 85 36q33 32 46 81q-4 -136 -141 -136q-89 0 -139.5 49.5t-50.5 138.5q0 108 69 178t176 70h363v-29q-84 2 -107 -10
q-35 -18 -35 -92v-552q0 -47 20.5 -67t67.5 -20q11 0 32 1t32 1q93 0 114 4q58 11 98 79q22 38 51 121h23v-233z" />
    <glyph glyph-name="M" unicode="M" horiz-adv-x="1306" 
d="M1277 -1h-361v26q59 -5 88 8q40 18 40 73v605l-313 -713h-32l-295 708v-557q0 -112 128 -125v-25h-289v25q130 11 130 152v497q0 70 -36 88q-20 10 -90 10q-195 0 -195 -181q0 -191 186 -260q-5 0 -13.5 -1.5t-13.5 -1.5q-101 0 -155 69q-50 63 -50 166q0 120 89 182
q77 54 202 54h171l294 -662l292 661h223v-28q-86 0 -108 -14q-27 -17 -27 -81v-552q0 -97 74 -97h61v-26z" />
    <glyph glyph-name="N" unicode="N" horiz-adv-x="1043" 
d="M1023 773q-45 -3 -77 -21q-41 -23 -41 -63v-692h-25l-536 733v-584q0 -71 35 -98q28 -21 105 -26v-26h-294v26q64 8 87 21q38 21 38 75v542q0 68 -12 77q-62 47 -133 47q-61 0 -98 -50q-34 -45 -34 -108q0 -53 27 -89q30 -40 81 -40q46 0 86 64q-20 -78 -92 -78
q-65 0 -102.5 39t-37.5 104q0 71 50.5 123t121.5 52h239l463 -612v501q0 85 -132 83v28h281v-28z" />
    <glyph glyph-name="O" unicode="O" horiz-adv-x="846" 
d="M823 400q0 -190 -120 -301q-116 -107 -288 -107t-290 109q-122 113 -122 303q0 187 123 298q118 107 287 107q172 0 289 -108q121 -111 121 -301zM712 398q0 169 -63 266q-75 116 -236 116q-159 0 -234 -116q-62 -96 -62 -264q0 -382 304 -382q154 0 229 119
q62 98 62 261z" />
    <glyph glyph-name="P" unicode="P" horiz-adv-x="675" 
d="M659 585q0 -213 -260 -213h-29q79 19 123.5 73t44.5 134t-38 130q-43 57 -120 57h-106v-626q0 -111 66 -111h60v-28h-340v28q19 -3 35 -3q55 0 74 37q12 24 12 84v501q0 68 -15 87q-19 24 -84 24h-82v28l313 10q346 11 346 -212z" />
    <glyph glyph-name="Q" unicode="Q" horiz-adv-x="843" 
d="M1057 -287q-43 -35 -71 -44q-21 -7 -61 -7q-163 0 -243 216l-60 162q-107 -47 -213 -47q-171 0 -289 109.5t-118 299.5q0 182 120 293q117 108 281 108q90 0 155 -27q58 -24 121 -80q123 -111 123 -297q0 -122 -29 -183.5t-42 -82.5q-25 -39 -60 -64q40 -41 92 -135
q55 -98 90 -137q78 -87 204 -84zM700 398q0 164 -63 260q-75 116 -231 116q-157 0 -231 -115q-61 -95 -61 -261q0 -377 300 -377q108 0 184 70q-55 91 -136 99q-7 1 -56 2q-32 1 -32 24q0 20 32 20q49 0 120 -38t99 -78q37 39 58 132q17 76 17 146z" />
    <glyph glyph-name="R" unicode="R" horiz-adv-x="1127" 
d="M1112 -4h-189q-7 0 -45 40q-26 27 -42 49l-101 142q-56 79 -120 137q-12 11 -45 9q132 28 181 65q61 46 61 143q0 113 -66 154q-48 30 -153 30h-51l-1 -620q0 -24 5 -71q10 -44 58 -50l74 -2v-25h-357v25q81 -5 107 26q18 22 18 90v509q0 56 -9 75q-16 33 -67 33
q-132 0 -212 -40q-107 -53 -107 -172q0 -201 226 -294q-124 -4 -202 66.5t-78 193.5q0 233 298 267q131 15 200 17l95 3q172 5 251 -46t79 -160q0 -87 -69 -142q-64 -51 -132 -58q20 -13 45 -49q50 -72 58 -82q74 -96 124 -149q40 -42 88 -66q44 -22 78 -22q-1 0 -2 2l2 1
v-29z" />
    <glyph glyph-name="S" unicode="S" horiz-adv-x="539" 
d="M504 185q0 -60 -8 -87q-10 -34 -43 -63q-67 -58 -177 -58q-131 0 -219 96q-16 -8 -30 -74h-28v256h28q45 -249 237 -249q74 0 122 40q52 43 52 115q0 91 -113 148q-28 14 -209 101q-113 72 -113 191q0 90 60 145t150 55q66 0 131 -36q75 -41 75 -100q0 -14 -10.5 -30.5
t-23.5 -16.5q-25 0 -25 26q0 7 3 21t3 21q0 13 -8 24q-44 59 -139 59q-60 0 -97 -30q-22 -18 -40 -49q-20 -34 -20 -62q0 -86 115 -142l213 -103q114 -75 114 -198z" />
    <glyph glyph-name="T" unicode="T" horiz-adv-x="985" 
d="M969 747q0 -10 -41 -34q-127 -75 -287 -75q-13 0 -38.5 3t-38.5 3h-7v-520q0 -64 19 -83q24 -24 105 -19v-22h-331v22h53q49 0 65 36q8 18 8 69v534l-259 70q-35 9 -71 8q-52 -2 -82.5 -33.5t-30.5 -83.5q0 -100 122 -144q83 -30 168 -27l84 3q-96 -16 -139 -16
q-89 0 -162 35q-102 49 -102 149q0 86 62 135q44 35 144 35q79 0 259 -55q146 -45 268 -45q98 0 184 49q30 17 34 17q14 0 14 -11z" />
    <glyph glyph-name="U" unicode="U" horiz-adv-x="1110" 
d="M1123 773q-112 -13 -112 -101v-381q0 -291 -317 -291q-116 0 -198 58q-95 67 -95 198v434q0 61 -35 75q-12 5 -73 5q-239 0 -239 -208q0 -142 105 -198q-74 14 -118 65t-44 126q0 120 109 190q88 56 190 56h323v-26q-71 0 -93 -13q-28 -16 -28 -71v-427q0 -226 224 -226
q112 0 182 57q76 61 76 170v411q0 92 -118 99v26h261v-28z" />
    <glyph glyph-name="V" unicode="V" horiz-adv-x="1175" 
d="M1157 772q-18 -2 -25 -3q-14 -4 -22 -12q-59 -59 -93 -145l-62 -154q-54 -134 -191 -458h-20l-306 711q-17 39 -55 51q-22 7 -79 7q-97 0 -169 -47q-87 -57 -87 -159q0 -84 52.5 -162.5t129.5 -115.5q-105 3 -170.5 67.5t-65.5 169.5q0 113 80 196t193 82l374 -2v-25
q-4 -1 -43 -2q-63 -2 -63 -42q0 -19 107 -268q24 -57 147 -328l136 327q88 212 88 245q0 64 -94 67v28h238v-28z" />
    <glyph glyph-name="W" unicode="W" horiz-adv-x="1033" 
d="M1013 812q0 -53 -12 -89q-7 -21 -27 -86q-10 -31 -59 -231q-53 -219 -108 -409h-30l-237 642l-209 -642h-10q-6 19 -44 143q-76 250 -180 573q-16 50 -67 56l-25 3v26h277v-26q-27 -5 -54 -9q-29 -9 -29 -41q0 -9 51 -153q72 -207 132 -397l150 520q-15 49 -15 90
q0 145 59 214q83 97 203 97q108 0 176 -102q58 -87 58 -179zM980 816q0 87 -50 149q-53 67 -138 67q-88 0 -145 -69q-55 -65 -55 -154q0 -53 104 -331l114 -305q76 249 155 535q15 54 15 108z" />
    <glyph glyph-name="X" unicode="X" horiz-adv-x="1252" 
d="M1416 26q-65 -148 -288 -148q-168 0 -293 110q-120 107 -216 331q-38 -41 -98 -108q-85 -95 -85 -118q0 -31 48 -40q3 0 11 -2l45 -5v-44h-323v44q8 -1 17 -1q86 0 184 113l180 208q-12 20 -74 166q-45 106 -90 154q-64 68 -158 68q-210 0 -210 -257q0 -220 165 -279
q-16 -2 -31 -2q-102 0 -157 89q-43 70 -43 166q0 161 104 244q94 76 259 76q38 0 68 -12q11 -4 52 -25q53 -29 99 -101q5 -8 99 -175q25 28 83 96q78 91 78 110q0 36 -51 42l-54 6v44h309v-45q-81 1 -184 -112q-38 -39 -159 -174q99 -187 124 -228q180 -296 386 -296
q124 0 203 105z" />
    <glyph glyph-name="Y" unicode="Y" horiz-adv-x="830" 
d="M818 768q-67 -6 -115 -70q-33 -44 -242 -383v-206q0 -84 90 -84q11 0 23 1v-28h-326v28q14 -1 26 -1q89 0 89 92v188q-20 30 -60 96q-20 33 -111 186q-65 109 -119 165q-12 12 -69 18v26h406v-26q-92 -7 -105 -9q-82 -11 -82 -35q0 -14 225 -376q59 94 109 174
q92 149 92 180q0 62 -124 62q-56 0 -66 4v26h359v-28z" />
    <glyph glyph-name="Z" unicode="Z" horiz-adv-x="994" 
d="M975 95q0 -77 -46 -129t-122 -52q-59 0 -195 64t-192 64q-58 0 -82 -20q-13 -9 -25 -18q-18 -14 -29 -33l-107 -11q-4 3 -4 14q0 10 494 725q-15 4 -35 4h-104l-294 16q-196 11 -196 -147q0 -71 41 -110t112 -39q51 0 95 19q36 16 102 60h9q6 -9 5 -20q-118 -87 -216 -87
q-83 0 -134.5 50t-51.5 132q0 125 113 182q90 46 195 41l279 -13l253 15v-32l-465 -673l97 8q20 0 65 -18q67 -27 90 -33q102 -32 155 -32q59 0 100 28q47 32 47 108q0 31 -18 66q8 9 25 19q24 -50 30 -71q9 -32 9 -77z" />
    <glyph glyph-name="a" unicode="a" horiz-adv-x="421" 
d="M394 56q0 -27 -24.5 -45.5t-52.5 -18.5q-58 0 -76 66q-90 -66 -150 -66q-38 0 -65.5 23t-27.5 60q0 67 84 108q6 3 122 57q-129 -76 -129 -149q0 -26 14.5 -44.5t39.5 -18.5q48 0 114 59v216q0 74 -89 74q-49 0 -67 -24q-1 -2 -15 -46q-8 -25 -32 -25q-29 0 -29 28
q0 50 68 73q44 15 85 15q147 0 147 -112v-221q0 -37 29 -37q35 0 37 45h17v-17z" />
    <glyph glyph-name="b" unicode="b" horiz-adv-x="474" 
d="M441 199q0 -87 -49 -143q-51 -59 -137 -59q-76 0 -123 65q-10 -8 -52 -53q-26 -28 -46 -28q-31 0 -31 30q0 39 61 37v679q0 18 -19.5 26.5t-38.5 6.5v19q62 0 117 21h8v-654q0 -56 26 -90q28 -37 83 -37q124 0 124 184q0 173 -137 173q-32 0 -49 -4q43 24 83 24
q83 0 133 -58q47 -55 47 -139z" />
    <glyph glyph-name="c" unicode="c" horiz-adv-x="363" 
d="M335 100q-29 -102 -151 -102q-86 0 -138 54.5t-52 141.5q0 86 56 145.5t141 59.5q32 0 74 -16q55 -21 55 -57q0 -13 -8.5 -23.5t-20.5 -10.5q-21 0 -32 22q-2 5 -13 41q-14 22 -53 22q-121 0 -121 -170q0 -185 132 -185q93 0 131 78z" />
    <glyph glyph-name="d" unicode="d" horiz-adv-x="529" 
d="M480 30q0 -14 -12.5 -24.5t-26.5 -10.5h-58q-17 0 -52 -8q-3 9 -9 64q-61 -65 -140 -65q-77 0 -128 63q-48 58 -48 137q0 85 47 141q51 60 134 60q25 0 66 -13q-171 7 -171 -185q0 -173 122 -173q63 0 115 61v651q0 20 -30 26q-20 4 -32 2v22q53 9 113 18h16v-742
q3 -27 16 -27q6 0 20.5 16.5t25.5 16.5q12 0 22 -9t10 -21z" />
    <glyph glyph-name="e" unicode="e" horiz-adv-x="388" 
d="M340 254h-263v-44q0 -190 127 -190q97 0 131 63q-15 -40 -60 -65q-41 -23 -87 -23q-82 0 -134 56.5t-52 139.5q0 85 48 142q51 61 135 61q57 0 104 -37q51 -39 51 -95v-8zM261 272v42q0 25 -27.5 42t-54.5 17q-38 0 -67.5 -28t-29.5 -66v-7h179z" />
    <glyph glyph-name="f" unicode="f" horiz-adv-x="264" 
d="M445 717q0 -15 -8 -27q-9 -15 -23 -15q-28 0 -28 33q0 4 1 13v13q0 58 -105 59q7 0 20 1.5t20 1.5q38 0 71 -14q52 -22 52 -65zM247 795q-98 -9 -98 -143v-232h90v-24h-92v-302q0 -40 11 -56q14 -19 53 -19q10 0 22 2v-22h-227v22q45 -5 59 23q7 14 7 55v480
q0 197 175 216z" />
    <glyph glyph-name="g" unicode="g" horiz-adv-x="618" 
d="M583 398q0 -43 -15 -79q-20 -48 -57 -48q-9 0 -19 7.5t-10 15.5l25 47q24 47 24 75q0 47 -33.5 78t-81.5 31q-60 0 -95.5 -40.5t-37.5 -101.5q67 -19 108.5 -71t41.5 -121q0 -48 -30.5 -97.5t-73.5 -69.5t-121 -28q-151 3 -151 -54q0 -39 115 -46q160 -10 213 -28
q115 -39 115 -156q0 -99 -83 -147q-67 -38 -174 -38q-81 0 -130 20q-74 30 -132 115q109 -116 255 -116q70 0 124 28q73 38 73 111q0 87 -112 110q-104 9 -208 21q-111 13 -111 94q0 76 116 106q-120 69 -120 181q0 83 66 139q63 54 147 54q7 0 20 -1.5t20 -1.5q8 0 21 42
q37 120 159 120q65 0 108.5 -43t43.5 -108zM41 -188q0 -8 -6.5 -16.5t-13.5 -7.5q-7 2 -13 2q-45 0 -45 -57q0 -19 7 -37q-20 46 -20 70q0 23 19 46.5t42 23.5q30 0 30 -24zM332 194q0 166 -122 166q-117 0 -117 -173q0 -161 120 -161q119 0 119 168z" />
    <glyph glyph-name="h" unicode="h" horiz-adv-x="524" 
d="M478 -2h-199v19q36 1 51.5 12t15.5 45v195q0 98 -90 98q-46 0 -93 -28q52 57 123 57q129 0 129 -148v-197q0 -38 63 -32v-21zM197 -2h-196v21q24 -3 44 5q25 9 22 32l-2 607q0 8 -7 68q-10 42 -54 39v19h60q10 0 28.5 5.5t28.5 5.5h14v-733q0 -44 62 -50v-19z" />
    <glyph glyph-name="i" unicode="i" horiz-adv-x="261" 
d="M233 138q-15 -61 -26 -84q-28 -59 -74 -59q-65 0 -65 86v243q0 41 -21 41q-18 0 -43 -44v12q0 26 19 48t45 22q28 0 44 -30q13 -24 13 -55v-217q0 -67 28 -67q29 0 56 49q20 36 24 55z" />
    <glyph glyph-name="j" unicode="j" horiz-adv-x="194" 
d="M153 585q0 -22 -14 -36t-36 -14q-20 0 -35 14.5t-15 34.5q0 19 16 35t35 16q20 0 34.5 -15t14.5 -35zM147 -173q0 -51 -42.5 -99.5t-92.5 -48.5h-15q55 18 73 70q10 29 10 84v434q0 44 -8 57q-14 24 -66 20v21l66 8q38 6 65 17h10v-563zM-53 -312q-111 38 -111 109
q0 16 12 31t27 15q27 0 27 -28q0 -3 -12.5 -29.5t-12.5 -30.5q0 -36 70 -67z" />
    <glyph glyph-name="k" unicode="k" horiz-adv-x="527" 
d="M486 -9h-212v21q52 6 52 23q0 10 -70 93q-65 78 -86 98q91 82 116 102q82 62 133 62q52 0 52 -34q0 -32 -31 -32q-4 0 -27.5 11t-28.5 11q-19 0 -78 -43q-44 -32 -61 -48l126 -154q67 -82 115 -89v-21zM218 -9h-214v21q18 0 42 3q34 4 34 29v592q0 60 -9 81q-6 14 -56 20
v23q50 3 95 12q29 10 33 10h14v-729q0 -40 61 -41v-21z" />
    <glyph glyph-name="l" unicode="l" horiz-adv-x="285" 
d="M229 -1h-229v23q78 -4 78 52v560q0 53 -2 67q-6 42 -35 48q-5 1 -35 2v24q50 2 99 12q30 10 36 10h14v-723q0 -56 74 -52v-23z" />
    <glyph glyph-name="m" unicode="m" horiz-adv-x="793" 
d="M771 1h-183v18q34 5 43 9q19 8 19 33v222q0 34 -24 56.5t-58 22.5q-56 0 -98 -33q22 27 58 45.5t70 18.5q118 0 118 -125v-188q0 -65 55 -58v-21zM504 0h-183v22q42 -4 54 18q8 12 8 45v178q0 99 -83 99q-55 0 -96 -31q52 62 127 62q44 0 75.5 -24.5t40.5 -67.5l2 -240
q0 -44 55 -39v-22zM246 0h-183v22q9 -2 17 -2q43 0 43 78v176q0 42 -5 53q-9 21 -44 21q-14 0 -28.5 -11t-18.5 -11q-24 0 -24 22q0 25 39 25q4 0 10.5 -1t10.5 -1q43 0 107 22q6 -4 12.5 -28t6.5 -35v-276q0 -18 21 -27q18 -8 36 -5v-22z" />
    <glyph glyph-name="n" unicode="n" horiz-adv-x="533" 
d="M498 1h-192v21q64 -4 64 35v229q0 39 -25.5 60t-65.5 21q-36 0 -85 -33q54 57 124 57q51 0 84.5 -27t33.5 -77v-206q0 -36 13 -48.5t49 -10.5v-21zM235 1h-192v21q62 -4 62 42v244q0 39 -39 39q-9 0 -23 -12t-19 -12q-8 0 -16.5 7t-8.5 15t7.5 15.5t15.5 8.5q55 6 77 10
q4 1 24 7q15 5 23 5h14q4 -30 13 -91l-2 -208q0 -4 -1 -10v-9q0 -53 65 -53v-19z" />
    <glyph glyph-name="o" unicode="o" horiz-adv-x="447" 
d="M414 193q0 -91 -58 -148.5t-149 -57.5q-89 0 -147.5 58.5t-58.5 147.5t59 147.5t148 58.5q88 0 147 -59t59 -147zM335 191q0 186 -127 186t-127 -185q0 -81 19 -121q29 -62 108 -62q127 0 127 182z" />
    <glyph glyph-name="p" unicode="p" horiz-adv-x="557" 
d="M507 190q0 -81 -44 -135q-47 -58 -126 -58q-39 0 -91 25q24 -10 53 -10q132 0 132 180q0 68 -29 114q-34 54 -98 54q-65 0 -113 -65v-648q0 -34 8 -45q12 -20 53 -17v-19h-195v19l34 2q33 6 33 28v700q0 27 -47 27q-19 0 -37 -18.5t-22 -18.5q-18 0 -18 19q0 20 18 28
q10 5 74.5 19.5t74.5 14.5h17q2 -20 9 -59q60 59 132 59q82 0 132 -56.5t50 -139.5z" />
    <glyph glyph-name="q" unicode="q" horiz-adv-x="441" 
d="M542 -361q0 -22 -30.5 -48t-52.5 -26h-218v24q40 0 52 5q23 10 23 43v681q-50 50 -116 50q-129 0 -129 -186q0 -170 124 -170q32 0 68 12q-59 -28 -109 -28q-78 0 -121 57q-40 52 -40 132q0 87 53.5 149.5t138.5 62.5q54 0 92 -24l40 -25q4 0 26.5 21.5t26.5 28.5h17
v-746q0 -44 19 -56q25 8 42 49t41 42q53 3 53 -48z" />
    <glyph glyph-name="r" unicode="r" horiz-adv-x="375" 
d="M350 343q0 -10 -11 -21.5t-21 -11.5q-7 0 -35.5 20t-43.5 20q-45 0 -85 -64q59 105 135 105q21 0 41 -14t20 -34zM210 -1h-209v21q68 -7 68 40v246q0 39 -53 39q-7 0 -15 -1v21q67 9 119 28q6 -14 10 -41q5 -34 6 -37l4 -122v-144q0 -30 49 -30q10 0 21 1v-21z" />
    <glyph glyph-name="s" unicode="s" horiz-adv-x="267" 
d="M237 103q0 -48 -31.5 -78t-79.5 -30q-55 0 -90 41q-12 -16 -19 -39h-17v121h17q30 -104 108 -104q67 0 67 66q0 43 -50 71l-92 52q-50 35 -50 86q0 42 28.5 72.5t70.5 30.5q36 0 68 -23q36 -25 36 -59q0 -9 -6.5 -18.5t-14.5 -9.5q-11 0 -14 23q-4 33 -11 44
q-15 23 -57 23q-61 0 -61 -55q0 -36 58 -69q18 -9 89 -45q51 -37 51 -100z" />
    <glyph glyph-name="t" unicode="t" horiz-adv-x="290" 
d="M258 376q0 -18 -35 -18q-16 0 -72 15q66 22 78 22q29 0 29 -19zM265 61q-11 -31 -40.5 -49t-63.5 -18q-44 0 -71.5 31t-27.5 76v285h-58v19q45 1 77 42q29 36 35 84h16v-431q0 -28 16 -49.5t43 -21.5t59 40q9 -5 15 -8z" />
    <glyph glyph-name="u" unicode="u" horiz-adv-x="535" 
d="M496 41q0 -22 -25 -31q-11 -3 -43 -7q-59 -8 -72 -11q-16 29 -16 120v214q0 43 -53 43q-7 0 -14 -1v22h134v-299q0 -32 16 -64q10 7 20 30q8 18 19 18t22.5 -11.5t11.5 -22.5zM323 70q-49 -78 -136 -78q-50 0 -85 28.5t-35 77.5v221q0 30 -17 41q-13 8 -45 8v22h129v-288
q0 -79 77 -79q55 0 112 47z" />
    <glyph glyph-name="v" unicode="v" horiz-adv-x="431" 
d="M654 436q0 -15 -8.5 -27.5t-22.5 -12.5q-18 0 -33 45q-19 57 -38 82q-33 44 -96 44q-52 0 -90 -37t-38 -89q0 -34 17.5 -69.5t44.5 -54.5l-152 -321h-30q-47 97 -109 246q-34 83 -70 119q-7 7 -31 7v24h177v-24q-52 0 -50 -22l123 -278l111 243q-53 67 -53 126
q0 82 47.5 128t129.5 46q69 0 120 -53t51 -122z" />
    <glyph glyph-name="w" unicode="w" horiz-adv-x="624" 
d="M592 394q0 -32 -69 -209q-18 -46 -72 -183h-20l-110 296l-116 -296h-19q-34 85 -91 246q-27 77 -61 117q-4 5 -31 5v22h170v-22q-48 4 -50 -21l96 -253q69 165 96 248q-2 11 -3 33q8 104 77 145q39 23 75 23q53 0 92 -50q36 -47 36 -101zM573 397q0 46 -29 80.5t-74 34.5
q-48 0 -78 -36.5t-30 -85.5q0 -28 50 -159q13 -34 52 -133l58 145q51 128 51 154z" />
    <glyph glyph-name="x" unicode="x" horiz-adv-x="425" 
d="M400 347q-42 -4 -89 -56l-81 -90l67 -101q34 -51 48 -51q20 0 32 40q11 36 8 58q-2 -41 -3 -82q-10 -75 -56 -75q-30 0 -83 74q-10 14 -56 83q-15 -15 -47 -52q-38 -44 -38 -50q0 -15 25 -20q19 -4 25 -2v-22h-150v22q31 -3 59 20q14 11 63.5 65t49.5 60q0 14 -55.5 87
t-64.5 73q-18 0 -31 -43q-8 -26 -10 -47q-3 22 9 78q16 75 53 75q26 0 142 -172q87 92 87 105t-24 19l-26 4v19h146v-19z" />
    <glyph glyph-name="y" unicode="y" horiz-adv-x="504" 
d="M217 98l-31 -77q1 13 -12 78q-8 40 -46 127q-50 115 -87 115q-27 0 -24 -94q-14 55 -14 67q0 68 51 68q62 0 117 -136q28 -69 46 -148zM420 355q-44 -26 -91 -135q-19 -46 -118 -275l-64 -148q-99 -231 -164 -231q-33 0 -33 28q0 32 47 57q52 28 59 43l147 327
q127 283 127 310q0 26 -57 26v23h147v-25z" />
    <glyph glyph-name="z" unicode="z" horiz-adv-x="447" 
d="M423 112q0 -37 -28 -74q-30 -40 -66 -40h-336v11l259 365h-161q-24 0 -44 -27q-16 -21 -23 -49h-15q8 60 16 92h296v-17l-256 -362h255q31 0 56.5 28t25.5 59q0 34 -21.5 57t-55.5 23q-21 0 -54 -19l-34 -19q-17 0 -17 20q0 27 44 43q31 11 51 11q45 0 76.5 -28.5
t31.5 -73.5z" />
    <glyph glyph-name="dagger" unicode="&#x2020;" horiz-adv-x="324" 
d="M85 679zM305 73q-28 -77 -121 -77q-119 0 -119 147v326h-67v30q6 -1 12 -1q42 0 82 58q35 51 35 89q0 47 -33 85t-80 38q-46 0 -75 -29t-29 -75q0 -29 26.5 -72.5t26.5 -45.5q0 -24 -25 -24q-33 0 -57 57q-19 45 -19 72q0 56 39.5 101t94.5 45t103 -46t48 -100v-151h141
v-29h-141v-355q0 -32 19.5 -55.5t50.5 -23.5q43 0 69 46q10 1 19 -10z" />
    <glyph glyph-name="HT" horiz-adv-x="234" 
 />
    <glyph glyph-name="CR.001" horiz-adv-x="234" 
 />
  </font>
</defs>
</svg>
